# xmcd CD database file
#
# Track frame offsets:
#	150
#	14568
#	27943
#	38862
#	63432
#	79668
#	90791
#	104428
#	113581
#	123247
#	134616
#	146885
#	170830
#	187071
#	201224
#	212587
#	225252
#	237887
#	251708
#	264317
#	274783
#	295184
#	307689
#	322006
#
# Disc length: 4489 seconds
#
# Revision: 0
# Processed by: cddbd v1.5.1PL0 Copyright (c) Steve Scherf et al.
# Submitted via: Feurio! 1.68 - http://www.feurio.com
#
DISCID=55118718
DTITLE=Bob Dylan - Self Portrait
DYEAR=1970
DGENRE=Country
TTITLE0=??? - All The Tired Horses
TTITLE1=??? - Alberta #1
TTITLE2=??? - I Forgot More Than You'll Ever Know
TTITLE3=??? - Days Of '49
TTITLE4=??? - Early Mornin' Rain
TTITLE5=??? - In Search Of Little Sadie
TTITLE6=??? - Let It Be Me
TTITLE7=??? - Little Sadie
TTITLE8=??? - Woogie Boogie
TTITLE9=??? - Belle Isle
TTITLE10=??? - Living The Blues
TTITLE11=??? - Like A Rolling Stone
TTITLE12=??? - Copper Kettle
TTITLE13=??? - Gotta Travel On
TTITLE14=??? - Blue Moon
TTITLE15=??? - The Boxer
TTITLE16=??? - The Mighty Quinn (Quinn The Eskimo)
TTITLE17=??? - Take Me As I Am
TTITLE18=??? - Take A Message To Mary
TTITLE19=??? - It Hurts Me Too
TTITLE20=??? - Minstrel Boy
TTITLE21=??? - She Belongs To Me
TTITLE22=??? - Wigwam
TTITLE23=??? - Alberta #2
EXTD=© 1970, Sony Music Entertainment Inc.\r\nCATALOG 5099746011215\r\n
EXTT0=
EXTT1=
EXTT2=
EXTT3=
EXTT4=
EXTT5=
EXTT6=
EXTT7=
EXTT8=
EXTT9=
EXTT10=
EXTT11=
EXTT12=
EXTT13=
EXTT14=
EXTT15=
EXTT16=
EXTT17=
EXTT18=
EXTT19=
EXTT20=
EXTT21=
EXTT22=
EXTT23=
PLAYORDER=
